%TF.GenerationSoftware,KiCad,Pcbnew,(5.1.9)-1*%
%TF.CreationDate,2021-09-26T19:09:17+02:00*%
%TF.ProjectId,SnowStar,536e6f77-5374-4617-922e-6b696361645f,rev?*%
%TF.SameCoordinates,Original*%
%TF.FileFunction,Legend,Top*%
%TF.FilePolarity,Positive*%
%FSLAX46Y46*%
G04 Gerber Fmt 4.6, Leading zero omitted, Abs format (unit mm)*
G04 Created by KiCad (PCBNEW (5.1.9)-1) date 2021-09-26 19:09:17*
%MOMM*%
%LPD*%
G01*
G04 APERTURE LIST*
%ADD10C,0.800000*%
%ADD11C,0.120000*%
G04 APERTURE END LIST*
D10*
X122708528Y-114712629D02*
X127642716Y-116922230D01*
X127642684Y-112503002D02*
X122708528Y-114712629D01*
X127089197Y-107125157D02*
X127642684Y-112503002D01*
X131482421Y-123303485D02*
X131482417Y-119110075D01*
X135850498Y-122300179D02*
X135297031Y-116922262D01*
X131475799Y-134144079D02*
X135033114Y-127761311D01*
X127938137Y-127761306D02*
X131475799Y-134144079D01*
X131485638Y-125195597D02*
X127938137Y-127761306D01*
X131485638Y-125195597D02*
X131485636Y-123297918D01*
X131482421Y-123303485D02*
X127101756Y-126471775D01*
X131482421Y-123303485D02*
X135863054Y-126471780D01*
X135297002Y-112503026D02*
X135850475Y-107125123D01*
X140231141Y-114712656D02*
X135297002Y-112503026D01*
X135297031Y-116922262D02*
X140231141Y-114712656D01*
X127642716Y-116922230D02*
X127089193Y-122300164D01*
X127089193Y-122300164D02*
X131469867Y-119131875D01*
X124011066Y-119018899D02*
X127642668Y-116922197D01*
X131469849Y-110293388D02*
X127089197Y-107125157D01*
X135033114Y-127761311D02*
X131485638Y-125195597D01*
X135850475Y-107125123D02*
X131469849Y-110293388D01*
X131469867Y-119131875D02*
X135850498Y-122300179D01*
X144561382Y-111247326D02*
X148320206Y-104992241D01*
X138928615Y-119019429D02*
X139482098Y-124397350D01*
X140565665Y-109457947D02*
X138922226Y-110406786D01*
X131466783Y-104207888D02*
X131466786Y-106105567D01*
X124011066Y-119018899D02*
X123457549Y-124396785D01*
X114626177Y-104980307D02*
X118375159Y-111252430D01*
X124011106Y-110406356D02*
X119076955Y-112615948D01*
X141013909Y-105102887D02*
X140565665Y-109457947D01*
X140565665Y-109457947D02*
X144561382Y-111247326D01*
X135014285Y-101642179D02*
X131476622Y-95259406D01*
X131470000Y-106100000D02*
X127089367Y-102931705D01*
X122374056Y-119967738D02*
X118378340Y-118178359D01*
X124011066Y-119018899D02*
X119076918Y-116809267D01*
X138928655Y-110406786D02*
X143862803Y-112616418D01*
X121922664Y-105107995D02*
X114626177Y-104980307D01*
X132842950Y-92483217D02*
X132594457Y-91697511D01*
X132594457Y-91697511D02*
X132442748Y-91517045D01*
X131999465Y-93745581D02*
X132639493Y-93200576D01*
X132639493Y-93200576D02*
X132842950Y-92483217D01*
X140568842Y-119962701D02*
X141017058Y-124317790D01*
X138928655Y-110406786D02*
X135297053Y-112503488D01*
X122370879Y-109463084D02*
X121922664Y-105107995D01*
X122370879Y-109463084D02*
X124014320Y-110411924D01*
X131476577Y-91116844D02*
X130676703Y-91375434D01*
X130676703Y-91375434D02*
X130214213Y-91960329D01*
X148320206Y-104992241D02*
X141013909Y-105102887D01*
X140568842Y-119962701D02*
X138925401Y-119013861D01*
X124011106Y-110406356D02*
X123457623Y-105028435D01*
X131476622Y-95259406D02*
X127919308Y-101642174D01*
X121925812Y-124322798D02*
X122374056Y-119967738D01*
X118378340Y-118178359D02*
X114619516Y-124433444D01*
X118375159Y-111252430D02*
X122370879Y-109463084D01*
X138928655Y-110406786D02*
X139482172Y-105028900D01*
X131476577Y-91116844D02*
X131476577Y-91116844D01*
X144564562Y-118173355D02*
X140568842Y-119962701D01*
X148313544Y-124445478D02*
X144564562Y-118173355D01*
X141017058Y-124317790D02*
X148313544Y-124445478D01*
X138928615Y-119019429D02*
X143862766Y-116809837D01*
X132442748Y-91517045D02*
X131711460Y-91137178D01*
X131711460Y-91137178D02*
X131476577Y-91116844D01*
X127919308Y-101642174D02*
X131466783Y-104207888D01*
X130510405Y-93449389D02*
X131258851Y-93832133D01*
X131258851Y-93832133D02*
X131999465Y-93745581D01*
X130214213Y-91960329D02*
X130147020Y-92798273D01*
X130147020Y-92798273D02*
X130510405Y-93449389D01*
X122374056Y-119967738D02*
X124017495Y-119018899D01*
X131470000Y-106100000D02*
X135850666Y-102931710D01*
X131466783Y-104207888D02*
X135014285Y-101642179D01*
X124011106Y-110406356D02*
X127642712Y-112503065D01*
X114619516Y-124433444D02*
X121925812Y-124322798D01*
X138928615Y-119019429D02*
X135297010Y-116922720D01*
X131470000Y-106100000D02*
X131470004Y-110293410D01*
D11*
%TO.C,R1*%
X130529398Y-119688620D02*
X130054882Y-119688620D01*
X130529398Y-120733620D02*
X130054882Y-120733620D01*
%TO.C,R2*%
X137989640Y-114948378D02*
X137989640Y-114473862D01*
X136944640Y-114948378D02*
X136944640Y-114473862D01*
%TO.C,R3*%
X130529398Y-109733620D02*
X130054882Y-109733620D01*
X130529398Y-108688620D02*
X130054882Y-108688620D01*
%TO.C,R4*%
X127183360Y-125227834D02*
G75*
G03*
X129278935Y-121509165I-278463J2606714D01*
G01*
X126664169Y-119981604D02*
G75*
G03*
X124487558Y-123708075I240728J-2639516D01*
G01*
X124487558Y-123708075D02*
X127128935Y-125233075D01*
X126637558Y-119984165D02*
X129278935Y-121509165D01*
%TO.C,R5*%
X142807140Y-113191120D02*
X142807140Y-116241120D01*
X138507140Y-113191120D02*
X138507140Y-116241120D01*
X142822666Y-113212886D02*
G75*
G03*
X138507140Y-113191120I-2165526J-1528234D01*
G01*
X138538891Y-116285633D02*
G75*
G03*
X142807140Y-116241120I2118249J1544513D01*
G01*
%TO.C,R6*%
X124507558Y-105694165D02*
X127148935Y-104169165D01*
X126657558Y-109418075D02*
X129298935Y-107893075D01*
X124518644Y-105669837D02*
G75*
G03*
X126657558Y-109418075I2406253J-1111283D01*
G01*
X129321610Y-107843322D02*
G75*
G03*
X127148935Y-104169165I-2396713J1062202D01*
G01*
%TO.C,R7*%
X126444640Y-112798862D02*
X126444640Y-113273378D01*
X127489640Y-112798862D02*
X127489640Y-113273378D01*
%TO.C,R8*%
X133079398Y-123433620D02*
X132604882Y-123433620D01*
X133079398Y-122388620D02*
X132604882Y-122388620D01*
%TD*%
M02*
