M48
; DRILL file {KiCad (5.1.9)-1} date 09/26/21 19:09:20
; FORMAT={-:-/ absolute / inch / decimal}
; #@! TF.CreationDate,2021-09-26T19:09:20+02:00
; #@! TF.GenerationSoftware,Kicad,Pcbnew,(5.1.9)-1
; #@! TF.FileFunction,Plated,1,2,PTH
FMAT,2
INCH
T1C0.0157
T2C0.0315
T3C0.0394
%
G90
G05
T1
X4.5617Y-4.8705
X4.7152Y-4.1304
X4.7656Y-4.2886
X4.8019Y-4.7327
X4.8412Y-4.5162
X4.8452Y-4.6658
X4.8767Y-4.7603
X4.8806Y-4.4374
X4.8924Y-4.1382
X5.0381Y-4.3784
X5.1759Y-5.2209
X5.3097Y-4.839
X5.54Y-4.3489
X5.79Y-4.8705
T2
X4.9383Y-4.7941
X4.9391Y-4.2374
X5.0542Y-4.8611
X5.055Y-4.1705
X5.5377Y-4.4504
X5.5377Y-4.5843
T3
X5.1271Y-4.4146
X5.1271Y-4.5146
X5.1271Y-4.6146
X5.2271Y-4.4146
X5.2271Y-4.5146
X5.2271Y-4.6146
X5.3137Y-4.1619
X5.4137Y-4.1619
T0
M30
