%TF.GenerationSoftware,KiCad,Pcbnew,(5.1.9)-1*%
%TF.CreationDate,2021-09-26T19:09:17+02:00*%
%TF.ProjectId,SnowStar,536e6f77-5374-4617-922e-6b696361645f,rev?*%
%TF.SameCoordinates,Original*%
%TF.FileFunction,Soldermask,Bot*%
%TF.FilePolarity,Negative*%
%FSLAX46Y46*%
G04 Gerber Fmt 4.6, Leading zero omitted, Abs format (unit mm)*
G04 Created by KiCad (PCBNEW (5.1.9)-1) date 2021-09-26 19:09:17*
%MOMM*%
%LPD*%
G01*
G04 APERTURE LIST*
%ADD10R,1.700000X1.700000*%
%ADD11O,1.700000X1.700000*%
%ADD12R,1.000000X1.500000*%
%ADD13C,1.500000*%
G04 APERTURE END LIST*
D10*
%TO.C,J2*%
X134967140Y-105711120D03*
D11*
X137507140Y-105711120D03*
%TD*%
D10*
%TO.C,J1*%
X130227140Y-117211120D03*
D11*
X132767140Y-117211120D03*
X130227140Y-114671120D03*
X132767140Y-114671120D03*
X130227140Y-112131120D03*
X132767140Y-112131120D03*
%TD*%
D12*
%TO.C,JP1*%
X134867140Y-120711120D03*
X133567140Y-120711120D03*
%TD*%
D13*
%TO.C,R4*%
X128377140Y-123471120D03*
X125432654Y-121771120D03*
%TD*%
%TO.C,R5*%
X140657140Y-113041120D03*
X140657140Y-116441120D03*
%TD*%
%TO.C,R6*%
X125452654Y-107631120D03*
X128397140Y-105931120D03*
%TD*%
%TO.C,TP1*%
X126067140Y-123911120D03*
%TD*%
%TO.C,TP2*%
X142667140Y-114911120D03*
%TD*%
%TO.C,TP3*%
X126067140Y-105111120D03*
%TD*%
%TO.C,TP4*%
X122467140Y-105711120D03*
%TD*%
%TO.C,TP5*%
X117967140Y-118711120D03*
%TD*%
%TO.C,U1*%
G36*
G01*
X120017140Y-118671120D02*
X120017140Y-118371120D01*
G75*
G02*
X120167140Y-118221120I150000J0D01*
G01*
X121817140Y-118221120D01*
G75*
G02*
X121967140Y-118371120I0J-150000D01*
G01*
X121967140Y-118671120D01*
G75*
G02*
X121817140Y-118821120I-150000J0D01*
G01*
X120167140Y-118821120D01*
G75*
G02*
X120017140Y-118671120I0J150000D01*
G01*
G37*
G36*
G01*
X120017140Y-117401120D02*
X120017140Y-117101120D01*
G75*
G02*
X120167140Y-116951120I150000J0D01*
G01*
X121817140Y-116951120D01*
G75*
G02*
X121967140Y-117101120I0J-150000D01*
G01*
X121967140Y-117401120D01*
G75*
G02*
X121817140Y-117551120I-150000J0D01*
G01*
X120167140Y-117551120D01*
G75*
G02*
X120017140Y-117401120I0J150000D01*
G01*
G37*
G36*
G01*
X120017140Y-116131120D02*
X120017140Y-115831120D01*
G75*
G02*
X120167140Y-115681120I150000J0D01*
G01*
X121817140Y-115681120D01*
G75*
G02*
X121967140Y-115831120I0J-150000D01*
G01*
X121967140Y-116131120D01*
G75*
G02*
X121817140Y-116281120I-150000J0D01*
G01*
X120167140Y-116281120D01*
G75*
G02*
X120017140Y-116131120I0J150000D01*
G01*
G37*
G36*
G01*
X120017140Y-114861120D02*
X120017140Y-114561120D01*
G75*
G02*
X120167140Y-114411120I150000J0D01*
G01*
X121817140Y-114411120D01*
G75*
G02*
X121967140Y-114561120I0J-150000D01*
G01*
X121967140Y-114861120D01*
G75*
G02*
X121817140Y-115011120I-150000J0D01*
G01*
X120167140Y-115011120D01*
G75*
G02*
X120017140Y-114861120I0J150000D01*
G01*
G37*
G36*
G01*
X120017140Y-113591120D02*
X120017140Y-113291120D01*
G75*
G02*
X120167140Y-113141120I150000J0D01*
G01*
X121817140Y-113141120D01*
G75*
G02*
X121967140Y-113291120I0J-150000D01*
G01*
X121967140Y-113591120D01*
G75*
G02*
X121817140Y-113741120I-150000J0D01*
G01*
X120167140Y-113741120D01*
G75*
G02*
X120017140Y-113591120I0J150000D01*
G01*
G37*
G36*
G01*
X120017140Y-112321120D02*
X120017140Y-112021120D01*
G75*
G02*
X120167140Y-111871120I150000J0D01*
G01*
X121817140Y-111871120D01*
G75*
G02*
X121967140Y-112021120I0J-150000D01*
G01*
X121967140Y-112321120D01*
G75*
G02*
X121817140Y-112471120I-150000J0D01*
G01*
X120167140Y-112471120D01*
G75*
G02*
X120017140Y-112321120I0J150000D01*
G01*
G37*
G36*
G01*
X120017140Y-111051120D02*
X120017140Y-110751120D01*
G75*
G02*
X120167140Y-110601120I150000J0D01*
G01*
X121817140Y-110601120D01*
G75*
G02*
X121967140Y-110751120I0J-150000D01*
G01*
X121967140Y-111051120D01*
G75*
G02*
X121817140Y-111201120I-150000J0D01*
G01*
X120167140Y-111201120D01*
G75*
G02*
X120017140Y-111051120I0J150000D01*
G01*
G37*
G36*
G01*
X124967140Y-111051120D02*
X124967140Y-110751120D01*
G75*
G02*
X125117140Y-110601120I150000J0D01*
G01*
X126767140Y-110601120D01*
G75*
G02*
X126917140Y-110751120I0J-150000D01*
G01*
X126917140Y-111051120D01*
G75*
G02*
X126767140Y-111201120I-150000J0D01*
G01*
X125117140Y-111201120D01*
G75*
G02*
X124967140Y-111051120I0J150000D01*
G01*
G37*
G36*
G01*
X124967140Y-112321120D02*
X124967140Y-112021120D01*
G75*
G02*
X125117140Y-111871120I150000J0D01*
G01*
X126767140Y-111871120D01*
G75*
G02*
X126917140Y-112021120I0J-150000D01*
G01*
X126917140Y-112321120D01*
G75*
G02*
X126767140Y-112471120I-150000J0D01*
G01*
X125117140Y-112471120D01*
G75*
G02*
X124967140Y-112321120I0J150000D01*
G01*
G37*
G36*
G01*
X124967140Y-113591120D02*
X124967140Y-113291120D01*
G75*
G02*
X125117140Y-113141120I150000J0D01*
G01*
X126767140Y-113141120D01*
G75*
G02*
X126917140Y-113291120I0J-150000D01*
G01*
X126917140Y-113591120D01*
G75*
G02*
X126767140Y-113741120I-150000J0D01*
G01*
X125117140Y-113741120D01*
G75*
G02*
X124967140Y-113591120I0J150000D01*
G01*
G37*
G36*
G01*
X124967140Y-114861120D02*
X124967140Y-114561120D01*
G75*
G02*
X125117140Y-114411120I150000J0D01*
G01*
X126767140Y-114411120D01*
G75*
G02*
X126917140Y-114561120I0J-150000D01*
G01*
X126917140Y-114861120D01*
G75*
G02*
X126767140Y-115011120I-150000J0D01*
G01*
X125117140Y-115011120D01*
G75*
G02*
X124967140Y-114861120I0J150000D01*
G01*
G37*
G36*
G01*
X124967140Y-116131120D02*
X124967140Y-115831120D01*
G75*
G02*
X125117140Y-115681120I150000J0D01*
G01*
X126767140Y-115681120D01*
G75*
G02*
X126917140Y-115831120I0J-150000D01*
G01*
X126917140Y-116131120D01*
G75*
G02*
X126767140Y-116281120I-150000J0D01*
G01*
X125117140Y-116281120D01*
G75*
G02*
X124967140Y-116131120I0J150000D01*
G01*
G37*
G36*
G01*
X124967140Y-117401120D02*
X124967140Y-117101120D01*
G75*
G02*
X125117140Y-116951120I150000J0D01*
G01*
X126767140Y-116951120D01*
G75*
G02*
X126917140Y-117101120I0J-150000D01*
G01*
X126917140Y-117401120D01*
G75*
G02*
X126767140Y-117551120I-150000J0D01*
G01*
X125117140Y-117551120D01*
G75*
G02*
X124967140Y-117401120I0J150000D01*
G01*
G37*
G36*
G01*
X124967140Y-118671120D02*
X124967140Y-118371120D01*
G75*
G02*
X125117140Y-118221120I150000J0D01*
G01*
X126767140Y-118221120D01*
G75*
G02*
X126917140Y-118371120I0J-150000D01*
G01*
X126917140Y-118671120D01*
G75*
G02*
X126767140Y-118821120I-150000J0D01*
G01*
X125117140Y-118821120D01*
G75*
G02*
X124967140Y-118671120I0J150000D01*
G01*
G37*
%TD*%
M02*
