%TF.GenerationSoftware,KiCad,Pcbnew,(5.1.9)-1*%
%TF.CreationDate,2021-09-26T19:09:17+02:00*%
%TF.ProjectId,SnowStar,536e6f77-5374-4617-922e-6b696361645f,rev?*%
%TF.SameCoordinates,Original*%
%TF.FileFunction,Soldermask,Top*%
%TF.FilePolarity,Negative*%
%FSLAX46Y46*%
G04 Gerber Fmt 4.6, Leading zero omitted, Abs format (unit mm)*
G04 Created by KiCad (PCBNEW (5.1.9)-1) date 2021-09-26 19:09:17*
%MOMM*%
%LPD*%
G01*
G04 APERTURE LIST*
%ADD10C,0.100000*%
%ADD11R,1.000000X0.600000*%
%ADD12R,1.700000X1.700000*%
%ADD13O,1.700000X1.700000*%
%ADD14C,1.500000*%
G04 APERTURE END LIST*
D10*
%TO.C,D2*%
G36*
X118929415Y-122582434D02*
G01*
X119449031Y-122282434D01*
X119949031Y-123148460D01*
X119429415Y-123448460D01*
X118929415Y-122582434D01*
G37*
G36*
X120055249Y-121932434D02*
G01*
X120574865Y-121632434D01*
X121074865Y-122498460D01*
X120555249Y-122798460D01*
X120055249Y-121932434D01*
G37*
G36*
X117879415Y-120763780D02*
G01*
X118399031Y-120463780D01*
X118899031Y-121329806D01*
X118379415Y-121629806D01*
X117879415Y-120763780D01*
G37*
G36*
X119005249Y-120113780D02*
G01*
X119524865Y-119813780D01*
X120024865Y-120679806D01*
X119505249Y-120979806D01*
X119005249Y-120113780D01*
G37*
%TD*%
%TO.C,D1*%
G36*
X120565249Y-106623780D02*
G01*
X121084865Y-106923780D01*
X120584865Y-107789806D01*
X120065249Y-107489806D01*
X120565249Y-106623780D01*
G37*
G36*
X119439415Y-105973780D02*
G01*
X119959031Y-106273780D01*
X119459031Y-107139806D01*
X118939415Y-106839806D01*
X119439415Y-105973780D01*
G37*
G36*
X119515249Y-108442434D02*
G01*
X120034865Y-108742434D01*
X119534865Y-109608460D01*
X119015249Y-109308460D01*
X119515249Y-108442434D01*
G37*
G36*
X118389415Y-107792434D02*
G01*
X118909031Y-108092434D01*
X118409031Y-108958460D01*
X117889415Y-108658460D01*
X118389415Y-107792434D01*
G37*
%TD*%
D11*
%TO.C,D6*%
X130417140Y-100201120D03*
X130417140Y-101501120D03*
X132517140Y-100201120D03*
X132517140Y-101501120D03*
%TD*%
D10*
%TO.C,D5*%
G36*
X143929031Y-109308460D02*
G01*
X143409415Y-109608460D01*
X142909415Y-108742434D01*
X143429031Y-108442434D01*
X143929031Y-109308460D01*
G37*
G36*
X145054865Y-108658460D02*
G01*
X144535249Y-108958460D01*
X144035249Y-108092434D01*
X144554865Y-107792434D01*
X145054865Y-108658460D01*
G37*
G36*
X142879031Y-107489806D02*
G01*
X142359415Y-107789806D01*
X141859415Y-106923780D01*
X142379031Y-106623780D01*
X142879031Y-107489806D01*
G37*
G36*
X144004865Y-106839806D02*
G01*
X143485249Y-107139806D01*
X142985249Y-106273780D01*
X143504865Y-105973780D01*
X144004865Y-106839806D01*
G37*
%TD*%
%TO.C,D4*%
G36*
X144554865Y-121629806D02*
G01*
X144035249Y-121329806D01*
X144535249Y-120463780D01*
X145054865Y-120763780D01*
X144554865Y-121629806D01*
G37*
G36*
X143429031Y-120979806D02*
G01*
X142909415Y-120679806D01*
X143409415Y-119813780D01*
X143929031Y-120113780D01*
X143429031Y-120979806D01*
G37*
G36*
X143504865Y-123448460D02*
G01*
X142985249Y-123148460D01*
X143485249Y-122282434D01*
X144004865Y-122582434D01*
X143504865Y-123448460D01*
G37*
G36*
X142379031Y-122798460D02*
G01*
X141859415Y-122498460D01*
X142359415Y-121632434D01*
X142879031Y-121932434D01*
X142379031Y-122798460D01*
G37*
%TD*%
D11*
%TO.C,D3*%
X130427140Y-127881120D03*
X130427140Y-129181120D03*
X132527140Y-127881120D03*
X132527140Y-129181120D03*
%TD*%
%TO.C,C1*%
G36*
G01*
X117138134Y-106807578D02*
X117571146Y-107057578D01*
G75*
G02*
X117653502Y-107364934I-112500J-194856D01*
G01*
X117428502Y-107754646D01*
G75*
G02*
X117121146Y-107837002I-194856J112500D01*
G01*
X116688134Y-107587002D01*
G75*
G02*
X116605778Y-107279646I112500J194856D01*
G01*
X116830778Y-106889934D01*
G75*
G02*
X117138134Y-106807578I194856J-112500D01*
G01*
G37*
G36*
G01*
X117913134Y-105465238D02*
X118346146Y-105715238D01*
G75*
G02*
X118428502Y-106022594I-112500J-194856D01*
G01*
X118203502Y-106412306D01*
G75*
G02*
X117896146Y-106494662I-194856J112500D01*
G01*
X117463134Y-106244662D01*
G75*
G02*
X117380778Y-105937306I112500J194856D01*
G01*
X117605778Y-105547594D01*
G75*
G02*
X117913134Y-105465238I194856J-112500D01*
G01*
G37*
%TD*%
%TO.C,C5*%
G36*
G01*
X146256146Y-107597002D02*
X145823134Y-107847002D01*
G75*
G02*
X145515778Y-107764646I-112500J194856D01*
G01*
X145290778Y-107374934D01*
G75*
G02*
X145373134Y-107067578I194856J112500D01*
G01*
X145806146Y-106817578D01*
G75*
G02*
X146113502Y-106899934I112500J-194856D01*
G01*
X146338502Y-107289646D01*
G75*
G02*
X146256146Y-107597002I-194856J-112500D01*
G01*
G37*
G36*
G01*
X145481146Y-106254662D02*
X145048134Y-106504662D01*
G75*
G02*
X144740778Y-106422306I-112500J194856D01*
G01*
X144515778Y-106032594D01*
G75*
G02*
X144598134Y-105725238I194856J112500D01*
G01*
X145031146Y-105475238D01*
G75*
G02*
X145338502Y-105557594I112500J-194856D01*
G01*
X145563502Y-105947306D01*
G75*
G02*
X145481146Y-106254662I-194856J-112500D01*
G01*
G37*
%TD*%
D12*
%TO.C,J2*%
X134967140Y-105711120D03*
D13*
X137507140Y-105711120D03*
%TD*%
%TO.C,C6*%
G36*
G01*
X131152140Y-98341120D02*
X131152140Y-98841120D01*
G75*
G02*
X130927140Y-99066120I-225000J0D01*
G01*
X130477140Y-99066120D01*
G75*
G02*
X130252140Y-98841120I0J225000D01*
G01*
X130252140Y-98341120D01*
G75*
G02*
X130477140Y-98116120I225000J0D01*
G01*
X130927140Y-98116120D01*
G75*
G02*
X131152140Y-98341120I0J-225000D01*
G01*
G37*
G36*
G01*
X132702140Y-98341120D02*
X132702140Y-98841120D01*
G75*
G02*
X132477140Y-99066120I-225000J0D01*
G01*
X132027140Y-99066120D01*
G75*
G02*
X131802140Y-98841120I0J225000D01*
G01*
X131802140Y-98341120D01*
G75*
G02*
X132027140Y-98116120I225000J0D01*
G01*
X132477140Y-98116120D01*
G75*
G02*
X132702140Y-98341120I0J-225000D01*
G01*
G37*
%TD*%
%TO.C,C4*%
G36*
G01*
X145031146Y-123957002D02*
X144598134Y-123707002D01*
G75*
G02*
X144515778Y-123399646I112500J194856D01*
G01*
X144740778Y-123009934D01*
G75*
G02*
X145048134Y-122927578I194856J-112500D01*
G01*
X145481146Y-123177578D01*
G75*
G02*
X145563502Y-123484934I-112500J-194856D01*
G01*
X145338502Y-123874646D01*
G75*
G02*
X145031146Y-123957002I-194856J112500D01*
G01*
G37*
G36*
G01*
X145806146Y-122614662D02*
X145373134Y-122364662D01*
G75*
G02*
X145290778Y-122057306I112500J194856D01*
G01*
X145515778Y-121667594D01*
G75*
G02*
X145823134Y-121585238I194856J-112500D01*
G01*
X146256146Y-121835238D01*
G75*
G02*
X146338502Y-122142594I-112500J-194856D01*
G01*
X146113502Y-122532306D01*
G75*
G02*
X145806146Y-122614662I-194856J112500D01*
G01*
G37*
%TD*%
%TO.C,C3*%
G36*
G01*
X131802140Y-131051120D02*
X131802140Y-130551120D01*
G75*
G02*
X132027140Y-130326120I225000J0D01*
G01*
X132477140Y-130326120D01*
G75*
G02*
X132702140Y-130551120I0J-225000D01*
G01*
X132702140Y-131051120D01*
G75*
G02*
X132477140Y-131276120I-225000J0D01*
G01*
X132027140Y-131276120D01*
G75*
G02*
X131802140Y-131051120I0J225000D01*
G01*
G37*
G36*
G01*
X130252140Y-131051120D02*
X130252140Y-130551120D01*
G75*
G02*
X130477140Y-130326120I225000J0D01*
G01*
X130927140Y-130326120D01*
G75*
G02*
X131152140Y-130551120I0J-225000D01*
G01*
X131152140Y-131051120D01*
G75*
G02*
X130927140Y-131276120I-225000J0D01*
G01*
X130477140Y-131276120D01*
G75*
G02*
X130252140Y-131051120I0J225000D01*
G01*
G37*
%TD*%
%TO.C,C2*%
G36*
G01*
X116678134Y-121835238D02*
X117111146Y-121585238D01*
G75*
G02*
X117418502Y-121667594I112500J-194856D01*
G01*
X117643502Y-122057306D01*
G75*
G02*
X117561146Y-122364662I-194856J-112500D01*
G01*
X117128134Y-122614662D01*
G75*
G02*
X116820778Y-122532306I-112500J194856D01*
G01*
X116595778Y-122142594D01*
G75*
G02*
X116678134Y-121835238I194856J112500D01*
G01*
G37*
G36*
G01*
X117453134Y-123177578D02*
X117886146Y-122927578D01*
G75*
G02*
X118193502Y-123009934I112500J-194856D01*
G01*
X118418502Y-123399646D01*
G75*
G02*
X118336146Y-123707002I-194856J-112500D01*
G01*
X117903134Y-123957002D01*
G75*
G02*
X117595778Y-123874646I-112500J194856D01*
G01*
X117370778Y-123484934D01*
G75*
G02*
X117453134Y-123177578I194856J112500D01*
G01*
G37*
%TD*%
D12*
%TO.C,J1*%
X130227140Y-117211120D03*
D13*
X132767140Y-117211120D03*
X130227140Y-114671120D03*
X132767140Y-114671120D03*
X130227140Y-112131120D03*
X132767140Y-112131120D03*
%TD*%
%TO.C,R1*%
G36*
G01*
X131517140Y-119936120D02*
X131517140Y-120486120D01*
G75*
G02*
X131317140Y-120686120I-200000J0D01*
G01*
X130917140Y-120686120D01*
G75*
G02*
X130717140Y-120486120I0J200000D01*
G01*
X130717140Y-119936120D01*
G75*
G02*
X130917140Y-119736120I200000J0D01*
G01*
X131317140Y-119736120D01*
G75*
G02*
X131517140Y-119936120I0J-200000D01*
G01*
G37*
G36*
G01*
X129867140Y-119936120D02*
X129867140Y-120486120D01*
G75*
G02*
X129667140Y-120686120I-200000J0D01*
G01*
X129267140Y-120686120D01*
G75*
G02*
X129067140Y-120486120I0J200000D01*
G01*
X129067140Y-119936120D01*
G75*
G02*
X129267140Y-119736120I200000J0D01*
G01*
X129667140Y-119736120D01*
G75*
G02*
X129867140Y-119936120I0J-200000D01*
G01*
G37*
%TD*%
%TO.C,R2*%
G36*
G01*
X137742140Y-115936120D02*
X137192140Y-115936120D01*
G75*
G02*
X136992140Y-115736120I0J200000D01*
G01*
X136992140Y-115336120D01*
G75*
G02*
X137192140Y-115136120I200000J0D01*
G01*
X137742140Y-115136120D01*
G75*
G02*
X137942140Y-115336120I0J-200000D01*
G01*
X137942140Y-115736120D01*
G75*
G02*
X137742140Y-115936120I-200000J0D01*
G01*
G37*
G36*
G01*
X137742140Y-114286120D02*
X137192140Y-114286120D01*
G75*
G02*
X136992140Y-114086120I0J200000D01*
G01*
X136992140Y-113686120D01*
G75*
G02*
X137192140Y-113486120I200000J0D01*
G01*
X137742140Y-113486120D01*
G75*
G02*
X137942140Y-113686120I0J-200000D01*
G01*
X137942140Y-114086120D01*
G75*
G02*
X137742140Y-114286120I-200000J0D01*
G01*
G37*
%TD*%
%TO.C,R3*%
G36*
G01*
X129867140Y-108936120D02*
X129867140Y-109486120D01*
G75*
G02*
X129667140Y-109686120I-200000J0D01*
G01*
X129267140Y-109686120D01*
G75*
G02*
X129067140Y-109486120I0J200000D01*
G01*
X129067140Y-108936120D01*
G75*
G02*
X129267140Y-108736120I200000J0D01*
G01*
X129667140Y-108736120D01*
G75*
G02*
X129867140Y-108936120I0J-200000D01*
G01*
G37*
G36*
G01*
X131517140Y-108936120D02*
X131517140Y-109486120D01*
G75*
G02*
X131317140Y-109686120I-200000J0D01*
G01*
X130917140Y-109686120D01*
G75*
G02*
X130717140Y-109486120I0J200000D01*
G01*
X130717140Y-108936120D01*
G75*
G02*
X130917140Y-108736120I200000J0D01*
G01*
X131317140Y-108736120D01*
G75*
G02*
X131517140Y-108936120I0J-200000D01*
G01*
G37*
%TD*%
D14*
%TO.C,R4*%
X128377140Y-123471120D03*
X125432654Y-121771120D03*
%TD*%
%TO.C,R5*%
X140657140Y-113041120D03*
X140657140Y-116441120D03*
%TD*%
%TO.C,R6*%
X125452654Y-107631120D03*
X128397140Y-105931120D03*
%TD*%
%TO.C,R7*%
G36*
G01*
X126692140Y-111811120D02*
X127242140Y-111811120D01*
G75*
G02*
X127442140Y-112011120I0J-200000D01*
G01*
X127442140Y-112411120D01*
G75*
G02*
X127242140Y-112611120I-200000J0D01*
G01*
X126692140Y-112611120D01*
G75*
G02*
X126492140Y-112411120I0J200000D01*
G01*
X126492140Y-112011120D01*
G75*
G02*
X126692140Y-111811120I200000J0D01*
G01*
G37*
G36*
G01*
X126692140Y-113461120D02*
X127242140Y-113461120D01*
G75*
G02*
X127442140Y-113661120I0J-200000D01*
G01*
X127442140Y-114061120D01*
G75*
G02*
X127242140Y-114261120I-200000J0D01*
G01*
X126692140Y-114261120D01*
G75*
G02*
X126492140Y-114061120I0J200000D01*
G01*
X126492140Y-113661120D01*
G75*
G02*
X126692140Y-113461120I200000J0D01*
G01*
G37*
%TD*%
%TO.C,R8*%
G36*
G01*
X132417140Y-122636120D02*
X132417140Y-123186120D01*
G75*
G02*
X132217140Y-123386120I-200000J0D01*
G01*
X131817140Y-123386120D01*
G75*
G02*
X131617140Y-123186120I0J200000D01*
G01*
X131617140Y-122636120D01*
G75*
G02*
X131817140Y-122436120I200000J0D01*
G01*
X132217140Y-122436120D01*
G75*
G02*
X132417140Y-122636120I0J-200000D01*
G01*
G37*
G36*
G01*
X134067140Y-122636120D02*
X134067140Y-123186120D01*
G75*
G02*
X133867140Y-123386120I-200000J0D01*
G01*
X133467140Y-123386120D01*
G75*
G02*
X133267140Y-123186120I0J200000D01*
G01*
X133267140Y-122636120D01*
G75*
G02*
X133467140Y-122436120I200000J0D01*
G01*
X133867140Y-122436120D01*
G75*
G02*
X134067140Y-122636120I0J-200000D01*
G01*
G37*
%TD*%
M02*
